<svg xmlns="http://www.w3.org/2000/svg" xmlns:xlink="http://www.w3.org/1999/xlink" width="78.8" height="85.2"><defs><linearGradient xlink:href="#a" id="t" x1="0" x2="1" y1="0" y2="0" gradientTransform="rotate(238.413 208.285 309.07)scale(-32.06729 32.06729)" gradientUnits="userSpaceOnUse" spreadMethod="pad"/><linearGradient id="a" x1="0" x2="1" y1="0" y2="0" gradientTransform="rotate(238.413 208.285 309.07)scale(-32.06729 32.06729)" gradientUnits="userSpaceOnUse" spreadMethod="pad"><stop offset="0" style="stop-opacity:1;stop-color:#e5e5e5"/><stop offset=".6" style="stop-opacity:1;stop-color:#fff"/><stop offset="1" style="stop-opacity:1;stop-color:#e5e5e5"/></linearGradient><linearGradient xlink:href="#b" id="s" x1="0" x2="1" y1="0" y2="0" gradientTransform="rotate(238.413 204.595 315.67)scale(-32.06704 32.06704)" gradientUnits="userSpaceOnUse" spreadMethod="pad"/><linearGradient id="b" x1="0" x2="1" y1="0" y2="0" gradientTransform="rotate(238.413 204.595 315.67)scale(-32.06704 32.06704)" gradientUnits="userSpaceOnUse" spreadMethod="pad"><stop offset="0" style="stop-opacity:1;stop-color:#e5e5e5"/><stop offset=".6" style="stop-opacity:1;stop-color:#fff"/><stop offset="1" style="stop-opacity:1;stop-color:#e5e5e5"/></linearGradient><linearGradient xlink:href="#c" id="r" x1="0" x2="1" y1="0" y2="0" gradientTransform="rotate(58.413 -553.24 372.374)scale(32.06723 -32.06723)" gradientUnits="userSpaceOnUse" spreadMethod="pad"/><linearGradient id="c" x1="0" x2="1" y1="0" y2="0" gradientTransform="rotate(58.413 -553.24 372.374)scale(32.06723 -32.06723)" gradientUnits="userSpaceOnUse" spreadMethod="pad"><stop offset="0" style="stop-opacity:1;stop-color:#e5e5e5"/><stop offset=".6" style="stop-opacity:1;stop-color:#fff"/><stop offset="1" style="stop-opacity:1;stop-color:#e5e5e5"/></linearGradient><linearGradient xlink:href="#d" id="q" x1="0" x2="1" y1="0" y2="0" gradientTransform="matrix(0 17.20046 17.20046 0 58.244 648.705)" gradientUnits="userSpaceOnUse" spreadMethod="pad"/><linearGradient id="d" x1="0" x2="1" y1="0" y2="0" gradientTransform="matrix(0 17.20046 17.20046 0 58.244 648.705)" gradientUnits="userSpaceOnUse" spreadMethod="pad"><stop offset="0" style="stop-opacity:1;stop-color:#a1242f"/><stop offset="1" style="stop-opacity:1;stop-color:#da2337"/></linearGradient><linearGradient xlink:href="#e" id="p" x1="0" x2="1" y1="0" y2="0" gradientTransform="matrix(0 17.05046 17.05046 0 51.654 658.607)" gradientUnits="userSpaceOnUse" spreadMethod="pad"/><linearGradient id="e" x1="0" x2="1" y1="0" y2="0" gradientTransform="matrix(0 17.05046 17.05046 0 51.654 658.607)" gradientUnits="userSpaceOnUse" spreadMethod="pad"><stop offset="0" style="stop-opacity:1;stop-color:#2b529f"/><stop offset="1" style="stop-opacity:1;stop-color:#5d95d0"/></linearGradient><linearGradient xlink:href="#f" id="o" x1="0" x2="1" y1="0" y2="0" gradientTransform="matrix(0 17.05046 17.05046 0 64.832 658.607)" gradientUnits="userSpaceOnUse" spreadMethod="pad"/><linearGradient id="f" x1="0" x2="1" y1="0" y2="0" gradientTransform="matrix(0 17.05046 17.05046 0 64.832 658.607)" gradientUnits="userSpaceOnUse" spreadMethod="pad"><stop offset="0" style="stop-opacity:1;stop-color:#2b529f"/><stop offset="1" style="stop-opacity:1;stop-color:#5d95d0"/></linearGradient><linearGradient xlink:href="#g" id="n" x1="0" x2="1" y1="0" y2="0" gradientTransform="matrix(0 17.0503 17.0503 0 58.244 658.607)" gradientUnits="userSpaceOnUse" spreadMethod="pad"/><linearGradient id="g" x1="0" x2="1" y1="0" y2="0" gradientTransform="matrix(0 17.0503 17.0503 0 58.244 658.607)" gradientUnits="userSpaceOnUse" spreadMethod="pad"><stop offset="0" style="stop-opacity:1;stop-color:#2b529f"/><stop offset="1" style="stop-opacity:1;stop-color:#5d95d0"/></linearGradient><linearGradient xlink:href="#h" id="m" x1="0" x2="1" y1="0" y2="0" gradientTransform="rotate(58.413 -559.18 369.054)scale(32.06634 -32.06634)" gradientUnits="userSpaceOnUse" spreadMethod="pad"/><linearGradient id="h" x1="0" x2="1" y1="0" y2="0" gradientTransform="rotate(58.413 -559.18 369.054)scale(32.06634 -32.06634)" gradientUnits="userSpaceOnUse" spreadMethod="pad"><stop offset="0" style="stop-opacity:1;stop-color:#e5e5e5"/><stop offset=".6" style="stop-opacity:1;stop-color:#fff"/><stop offset="1" style="stop-opacity:1;stop-color:#e5e5e5"/></linearGradient><linearGradient xlink:href="#i" id="l" x1="0" x2="1" y1="0" y2="0" gradientTransform="matrix(0 17.05078 17.05078 0 58.243 658.607)" gradientUnits="userSpaceOnUse" spreadMethod="pad"/><linearGradient id="i" x1="0" x2="1" y1="0" y2="0" gradientTransform="matrix(0 17.05078 17.05078 0 58.243 658.607)" gradientUnits="userSpaceOnUse" spreadMethod="pad"><stop offset="0" style="stop-opacity:1;stop-color:#2b529f"/><stop offset="1" style="stop-opacity:1;stop-color:#5d95d0"/></linearGradient><linearGradient xlink:href="#j" id="k" x1="0" x2="1" y1="0" y2="0" gradientTransform="rotate(58.413 -559.375 368.945)scale(32.06639 -32.06639)" gradientUnits="userSpaceOnUse" spreadMethod="pad"/><linearGradient id="j" x1="0" x2="1" y1="0" y2="0" gradientTransform="rotate(58.413 -559.375 368.945)scale(32.06639 -32.06639)" gradientUnits="userSpaceOnUse" spreadMethod="pad"><stop offset="0" style="stop-opacity:1;stop-color:#e5e5e5"/><stop offset=".6" style="stop-opacity:1;stop-color:#fff"/><stop offset="1" style="stop-opacity:1;stop-color:#e5e5e5"/></linearGradient></defs><path d="M42.529 676.168s-.29-11.271 2.461-17.684c4.789-11.167 13.253-13.744 13.253-13.744s8.465 2.577 13.255 13.744c2.751 6.413 2.46 17.684 2.46 17.684s-4.388 2.588-15.715 2.588c-11.325 0-15.714-2.588-15.714-2.588" style="fill:url(#k);stroke:none" transform="matrix(2.5 0 0 -2.5 -106.227 1696.946)"/><path d="M43.466 675.566c-.013-.592-.201-10.9 2.298-16.757 2.329-5.456 5.602-8.719 7.936-10.497 2.422-1.843 4.364-2.511 4.543-2.571.18.059 2.118.727 4.539 2.569 2.337 1.777 5.611 5.041 7.94 10.499 2.5 5.856 2.312 16.165 2.299 16.757-.342.181-4.624 2.322-14.778 2.322-10.15 0-14.435-2.141-14.777-2.322" style="fill:url(#l);stroke:none" transform="matrix(2.5 0 0 -2.5 -106.227 1696.946)"/><path d="m44.209 675.002-.023-.013-.001-.027c-.002-.102-.138-10.243 2.291-15.911 2.21-5.157 5.287-8.269 7.478-9.971 2.376-1.847 4.256-2.481 4.275-2.488l.014-.004.014.004c.019.007 1.899.641 4.276 2.488 2.191 1.702 5.268 4.814 7.478 9.971 2.429 5.668 2.292 15.809 2.291 15.911l-.001.027-.023.013c-.04.02-4.039 2.036-14.035 2.036-9.995 0-13.994-2.016-14.034-2.036" style="fill:url(#m);stroke:none" transform="matrix(2.5 0 0 -2.5 -106.227 1696.946)"/><path d="m54.314 675.2 3.929-6.442 3.93 6.442c-1.248.07-2.57.106-3.93.106-1.359 0-2.681-.036-3.929-.106" style="fill:url(#n);stroke:none" transform="matrix(2.5 0 0 -2.5 -106.227 1696.946)"/><path d="m59.113 667.332 2.968-4.865h7.436c1.167 4.79 1.036 10.882 1.024 11.352-.244.101-2.234.874-6.7 1.262z" style="fill:url(#o);stroke:none" transform="matrix(2.5 0 0 -2.5 -106.227 1696.946)"/><path d="M45.946 673.819c-.013-.471-.143-6.563 1.024-11.352h7.436l2.967 4.865-4.726 7.749c-4.465-.387-6.457-1.161-6.701-1.262" style="fill:url(#p);stroke:none" transform="matrix(2.5 0 0 -2.5 -106.227 1696.946)"/><path d="M54.487 659.747c-.013-.019-.308-.463-.535-.686-.221-.218-.515-.25-.671-.25a1 1 0 0 0-.073.003h-4.922c1.981-4.096 4.577-6.624 6.411-8.026 1.893-1.447 3.383-2.022 3.546-2.083.164.061 1.651.635 3.543 2.08 1.835 1.403 4.432 3.932 6.415 8.029h-4.917s-.03-.003-.078-.003c-.157 0-.451.032-.671.25-.227.223-.522.667-.536.688l-3.756 6.156z" style="fill:url(#q);stroke:none" transform="matrix(2.5 0 0 -2.5 -106.227 1696.946)"/><path d="M63.25 671.141v-2.844c0-1.217-.189-1.608-.776-1.608l-.385.045v-1.126l.036-.009c.314-.064.444-.09.836-.09 1.007 0 1.939.335 1.939 2.772v1.743h2.008v-4.397h1.664v5.514z" style="fill:url(#r);stroke:none" transform="matrix(2.5 0 0 -2.5 -106.227 1696.946)"/><path d="m51.575 671.136-1.987-2.011v2.011H47.92v-5.509h1.668v1.756l.783.639 1.49-2.395h2.021l-2.378 3.478 2.082 2.031z" style="fill:url(#s);stroke:none" transform="matrix(2.5 0 0 -2.5 -106.227 1696.946)"/><path d="m59.32 658.062-.974-1.544-.966 1.544h-2.114l1.981-2.642-2.145-2.789-.055-.072h2.111l1.09 1.682 1.091-1.682h2.116l-2.117 2.863 2.092 2.64z" style="fill:url(#t);stroke:none" transform="matrix(2.5 0 0 -2.5 -106.227 1696.946)"/></svg>