<svg xmlns="http://www.w3.org/2000/svg" xmlns:xlink="http://www.w3.org/1999/xlink" width="1020" height="495" viewBox="-34 -12 68 33"><defs><clipPath id="a"><path d="M-11-11h22v22h-22zm22 9.5a10.5 10.5 0 0 0 0 21v-3a7.5 7.5 0 1 1 0-15m-22 0a7.5 7.5 0 1 1 0 15v3a10.5 10.5 0 0 0 0-21z" clip-rule="evenodd"/></clipPath><clipPath id="b"><path d="m0 0-12 12H0z"/></clipPath><g id="c"><circle r="9" clip-path="url(#a)"/><circle r="9" clip-path="url(#b)"/><path d="M6.364-6.364a9 9 0 0 1 0 12.728"/></g></defs><g fill="none" stroke-width="2"><g stroke="#0085c7" transform="translate(-22)"><use xlink:href="#c"/><path d="M0-9A9 9 0 0 0 0 9"/></g><use xlink:href="#c" stroke="#000"/><g stroke="#df0024" transform="translate(22)"><use xlink:href="#c"/><path d="M0-9A9 9 0 0 1 0 9"/></g><use xlink:href="#c" stroke="#f4c300" transform="matrix(-1 0 0 -1 -11 9)"/><use xlink:href="#c" stroke="#009f3d" transform="matrix(-1 0 0 -1 11 9)"/></g></svg>