<?xml version="1.0" encoding="UTF-8"?>
<svg viewBox="0 0 151 200" xmlns="http://www.w3.org/2000/svg">
<path d="m57.31 1.75c2.03-1.33 5.46-0.77 7.94-0.77 5.8 0 15.73-1.32 21 0.38 8.5 53.88 17 107.75 25.5 161.63h-21.79c1.26-1.67 3.96-2.26 4.68-4.66 0.8-2.67-0.77-7.32-1.27-10.05-1.34-7.33-1.04-16.46-4.01-23.29h-31.63c0.44 1.62 2.21 2.52 2.44 4.26 0.47 3.58-1.22 8.35-1.85 11.9-1.21 6.77-1.09 15.66-4.07 21.85h-19.77c1.1-1.69 3.31-2.41 4.23-4.53 1.72-3.94 1.87-8.75 2.55-12.95 1.35-8.36 2.67-16.72 3.98-25.08 4.17-26.72 9.21-53.39 12.79-80.19 1.15-8.69 2.88-17.3 4.12-25.98 0.83-5.81 2.03-10.67-4.84-12.52zm-11.66 4c1.3 2.87 0.51 7.34 0.51 10.5 0 7.67 0.14 15.33 0.14 23 0 10.13 0.75 20.58-0.06 30.67-1.06 13.2-4.05 26.44-6 39.54-1.29 8.72-1.73 18.26-4.49 26.65-1.91-5.08-0.54-24.28-0.54-30.86v-71-17c0-1.96-0.65-5.27 0.22-7.05 1.03-2.11 8.02-4.33 10.22-4.45zm69.1 129.94c-3.24-9.33-3.49-20.57-4.96-30.33-1.8-11.93-4.61-24.08-5.48-36.11-0.74-10.07 0.1-20.41 0.1-30.5v-23c0-2.99-0.78-7.36 0.58-10 1.53 0.01 9.52 3.01 10.21 4.3 1.23 2.3 0.31 18.04 0.31 21.7v75.5c0 6.67 0 13.33 0.01 20 0 2.59 0.57 6.41-0.77 8.44zm-85.73-112.68v148.52c-2.44-1.03-3.29-4.56-4.3-7-2.74-6.59-4.85-13.37-6-20.42-1.76-10.7-0.79-22.04-0.79-32.86v-58c0-4.67-1.04-22.73 0.18-25.9 0.7-1.82 9.11-4.44 10.91-4.34zm92.71-0.17c2.33 0.19 9.21 1.92 10.56 4.12 1.15 1.88 0.43 5.63 0.43 7.79v19.5 56c0 10.75 0.77 21.84-0.56 32.52-0.91 7.27-3.17 14.4-5.95 21.16-1.09 2.64-2.02 6.27-4.48 7.58v-148.67zm-46.48 14.89c-3.64 23.66-7.29 47.32-10.93 70.98h22.43c0.79-5.79-1.58-12.89-2.51-18.65-1.91-11.76-3.52-23.6-5.63-35.33-0.63-3.53-1.29-14.83-3.36-17zm-63.71 2.02c1.57 7.28 0.23 21.47 0.23 29.5v54c0 10.08-0.84 20.6 0.52 30.6 1.39 10.15 4.78 19.86 9.9 28.73 2.57 4.45 6.7 8.52 8.73 13.17-2.81-0.41-6.02-4.42-8.03-6.38-7.09-6.87-13.16-14.74-17.25-23.75-5.4-11.88-4.82-24.11-4.82-36.87v-47.5-25.5c0-4.05-0.54-8.56 0.36-12.5 2.61-1.43 7.55-4.23 10.36-3.5zm127.71-0.08c2.99-0.33 8.04 2.07 10.5 3.92 0.79 3.67 0.27 7.9 0.27 11.66v23.5c0 16.99 0.26 34.01-0.1 51-0.4 18.56 0.23 30.19-10.7 46.21-3.51 5.14-13.58 18.27-19.52 19.79 1.89-3.65 4.83-6.78 7.02-10.28 5.33-8.52 9.29-17.92 11.07-27.84 1.96-10.94 1.09-22.32 1.09-33.38v-55.5c0-7.95-1.16-21.8 0.37-29.08zm-94.5 128.09c1.33 6.25 2.67 12.5 4 18.75-3.02 0.92-2.65-1.84-3.5-4.01h-4c-1.33 1.85-0.81 4.12-3.5 4.27-1.17-1.38-0.04-3.36 0.21-5.02 0.71-4.6 1.91-9.53 3.29-13.99h3.5zm12.5-0.03c1.33 3.86 2.67 7.73 4 11.6 1.17-3.85 2.33-7.7 3.5-11.55h3.5c0.67 2.77 1.29 16.06 0.11 18.35-0.4 0.79-1.12 0.63-1.85 0.62l-1.26-9.36c-0.83 2.66-1.67 5.31-2.5 7.96h-3c-1-2.53-2-5.07-3-7.6-0.99 2.59 1.01 8.81-2.5 9.04-1.54-1.39-1.13-16.44-0.5-19.06h3.5zm20 3.18c2.11-1 3.91-4.16 6.35-2.66-0.85 1.38-3.38 2.76-3.4 4.47-0.02 3.2 5.35 11.73 3.51 14.03-4.44-0.06-3.73-9.18-6.46-11.73-1.57 2.88 1.45 11.76-2.91 11.73-1.1-2.07-1.09-17.03 0.07-19 2.44-0.02 1.75 1.53 2.84 3.16zm18.5-3.15c1.33 6.2 2.67 12.41 4 18.61-3.08 1.31-2.69-1.8-3.74-3.92h-3.76c-1.42 1.8-0.91 4.36-3.7 4.3-1.21-2.5 2.53-15.79 3.7-18.99h3.5zm11.5-0.04h3c1.33 6.26 2.67 12.53 4 18.79-4.01 1.23-3.65-9.52-5.5-12.36-2.6 2.82-0.89 12.39-5.5 12.63-1.03-1.39-0.09-3.43 0.31-5.01 0.83-3.29 1.59-11.84 3.69-14.05zm-64 6.55c-1.46 1.15-1.66 3.87-1.43 5.68h2.66c-0.41-1.89-0.82-3.78-1.23-5.68zm51-0.08c-1.51 1.28-1.77 3.87-1.5 5.77h2.64c-0.38-1.93-0.76-3.85-1.14-5.77zm-22.5 18.66c0.66-1.15 1.16-1.68 2.5-1.45 1.19 1.57 1.31 4.88 0 6.44-2.72-0.08-2.06-1.9-2.75-4.09-1.83 0.87-1.98 2.58-0.95 4-5.64 1.03-0.32-3.38-0.86-4.41-0.22-0.41-1.15-0.66-1.52-1.09 1.48-1.79 2.22-0.41 3.58 0.6zm9.5-1.64c2.12 1.33 2.22 5.56 0 6.77-2.67-0.87-2.74-5.91 0-6.77zm-3.23 0.49v5.81c-1.29-1.2-1.95-5.03 0-5.81zm-4.12 1.55h-0.67l0.33 2.73c0.12-0.91 0.23-1.82 0.34-2.73z" fill="#050505" fill-rule="evenodd" stroke="#050505" stroke-linejoin="round" stroke-width=".25"/>
</svg>
